<?xml version="1.0" standalone="no"?><!DOCTYPE svg PUBLIC "-//W3C//DTD SVG 1.1//EN" "http://www.w3.org/Graphics/SVG/1.1/DTD/svg11.dtd"><svg t="1516108097662" class="icon" style="" viewBox="0 0 1152 1024" version="1.1" xmlns="http://www.w3.org/2000/svg" p-id="5034" xmlns:xlink="http://www.w3.org/1999/xlink" width="18" height="16"><defs><style type="text/css"></style></defs><path d="M224 128l-192 0c-17.6 0-32 14.4-32 32l0 704c0 17.6 14.4 32 32 32l192 0c17.6 0 32-14.4 32-32l0-704c0-17.6-14.4-32-32-32zM192 320l-128 0 0-64 128 0 0 64z" p-id="5035"></path><path d="M544 128l-192 0c-17.6 0-32 14.4-32 32l0 704c0 17.6 14.4 32 32 32l192 0c17.6 0 32-14.4 32-32l0-704c0-17.6-14.4-32-32-32zM512 320l-128 0 0-64 128 0 0 64z" p-id="5036"></path><path d="M765.088 177.472l-171.456 86.4c-15.712 7.904-22.112 27.264-14.176 42.976l287.968 571.552c7.904 15.712 27.264 22.112 42.976 14.176l171.456-86.4c15.712-7.904 22.112-27.264 14.176-42.976l-287.968-571.552c-7.904-15.712-27.264-22.112-42.976-14.176z" p-id="5037"></path><path d="M928 864c0 17.664-14.336 32-32 32s-32-14.336-32-32c0-17.664 14.336-32 32-32s32 14.336 32 32z" p-id="5038"></path></svg>