<?xml version="1.0" standalone="no"?><!DOCTYPE svg PUBLIC "-//W3C//DTD SVG 1.1//EN" "http://www.w3.org/Graphics/SVG/1.1/DTD/svg11.dtd"><svg t="1516086279874" class="icon" style="" viewBox="0 0 1024 1024" version="1.1" xmlns="http://www.w3.org/2000/svg" p-id="2784" xmlns:xlink="http://www.w3.org/1999/xlink" width="16" height="16"><defs><style type="text/css"></style></defs><path d="M858.844008 691.798992l1.343601 6.497994-385.915373 80.189344-1.359974-6.496971L858.844008 691.798992zM471.484749 748.678444l385.881604-80.19753 1.561565 7.722892-385.915373 80.189344L471.484749 748.678444zM860.019787 718.123544l1.343601 6.497994L475.430618 804.802696l-1.293459-6.456039L860.019787 718.123544zM453.184965 732.762963c-10.878768 34.508955-10.257621 68.279083 3.425006 101.863992l414.388868-94.081749 5.77554 25.837458-424.914596 96.440469-12.322653-2.190899L159.874709 686.268022c-15.360849-35.204803-20.397562-70.88135 0-107.681488l27.298739-4.230348 0 9.317203L545.487184 664.108327c9.921977-24.343431 15.98302-55.646368 2.569522-84.018555l-363.502921-73.758887 3.425006-25.308409 1.763157-0.537236 0-0.066515 0.217964 0 21.808702-6.715959 0.839111-22.538319 333.132216 81.037664c8.813736-24.645306 13.985526-49.005111 2.485611-77.69657l-336.489684-74.506924 0.032746-34.215266 264.820388-67.740824 306.774919 62.71332c16.251126 30.135344 12.1886 58.407248 0 85.872786l-22.178115 12.759605 40.931225 6.337335c17.559934 31.679513 13.228279 62.427818 0 92.781126l-67.388806 41.995463 142.650931 39.07597-0.923022 27.305903L453.184965 732.762963z" p-id="2785"></path></svg>