<?xml version="1.0" standalone="no"?><!DOCTYPE svg PUBLIC "-//W3C//DTD SVG 1.1//EN" "http://www.w3.org/Graphics/SVG/1.1/DTD/svg11.dtd"><svg t="1516107417908" class="icon" style="" viewBox="0 0 1024 1024" version="1.1" xmlns="http://www.w3.org/2000/svg" p-id="2262" xmlns:xlink="http://www.w3.org/1999/xlink" width="16" height="16"><defs><style type="text/css"></style></defs><path d="M921.8 358.3c0-20.5-16.6-37.1-37.1-37.1-6.6 0-12.9 1.8-18.3 4.8l-1.5-1.1-103.8 51.9v-142c0-40.9-33.2-74.1-74.1-74.1H180.7c-40.9 0-74.1 33.2-74.1 74.1v531.1c0 40.9 33.2 74.1 74.1 74.1h506.4c40.9 0 74.1-33.2 74.1-74.1V636.2L865 688.1l1.5-1.1c5.4 3.1 11.6 4.8 18.3 4.8 20.5 0 37.1-16.6 37.1-37.1 0-2.9-0.4-5.8-1-8.5l1-0.7V367.6l-1-0.7c0.5-2.8 0.9-5.7 0.9-8.6zM576 541.5v1L417.4 657.8l-1.3-0.8c-6.6 6.3-15.6 10.1-25.4 10.1-20.5 0-37.1-16.6-37.1-37.1 0-4.2 0.7-8.2 2-12l-2-1.3V396.2l2-1.3c-1.3-3.8-2-7.8-2-12 0-20.5 16.6-37.1 37.1-37.1 9.8 0 18.8 3.9 25.4 10.1l1.3-0.8L576 470.6v1c14.4 5.1 24.7 18.8 24.7 34.9 0 16.1-10.4 29.9-24.7 35z" p-id="2263"></path></svg>