<?xml version="1.0" standalone="no"?><!DOCTYPE svg PUBLIC "-//W3C//DTD SVG 1.1//EN" "http://www.w3.org/Graphics/SVG/1.1/DTD/svg11.dtd"><svg t="1515738437644" class="icon" style="" viewBox="0 0 1024 1024" version="1.1" xmlns="http://www.w3.org/2000/svg" p-id="4343" xmlns:xlink="http://www.w3.org/1999/xlink" width="16" height="16"><defs><style type="text/css"></style></defs><path d="M877.714286 438.857143 877.714286 365.714286c0-202.020571-163.693714-365.714286-365.714286-365.714286C310.052571 0 146.285714 163.693714 146.285714 365.714286l0 73.142857L73.142857 438.857143l0 585.142857 877.714286 0L950.857143 438.857143 877.714286 438.857143zM548.571429 720.310857 548.571429 877.714286l-73.142857 0L475.428571 720.310857C453.997714 707.510857 438.857143 685.056 438.857143 658.285714c0-40.448 32.768-73.142857 73.142857-73.142857s73.142857 32.694857 73.142857 73.142857C585.142857 685.056 570.002286 707.510857 548.571429 720.310857zM731.428571 438.857143 292.571429 438.857143 292.571429 365.714286c0-121.197714 98.230857-219.428571 219.428571-219.428571s219.428571 98.230857 219.428571 219.428571L731.428571 438.857143z" p-id="4344"></path></svg>