<?xml version="1.0" standalone="no"?><!DOCTYPE svg PUBLIC "-//W3C//DTD SVG 1.1//EN" "http://www.w3.org/Graphics/SVG/1.1/DTD/svg11.dtd"><svg t="1515738449455" class="icon" style="" viewBox="0 0 1024 1024" version="1.1" xmlns="http://www.w3.org/2000/svg" p-id="5005" xmlns:xlink="http://www.w3.org/1999/xlink" width="16" height="16"><defs><style type="text/css"></style></defs><path d="M671.730455 256.143757l-575.029637 0C43.798091 256.143757 0.862544 299.207088 0.862544 352.301491l0 384.630935c0 53.094403 42.935546 96.157734 95.838273 96.157734L128.646908 833.09016l0.511137 69.578586c9.200474 39.804829 54.436139 87.532289 130.212267 37.376926l119.797841-107.019405L671.730455 833.026268c52.902727 0 95.838273-43.063331 95.838273-96.157734l0-384.630935C767.568728 299.207088 724.633182 256.143757 671.730455 256.143757zM703.676546 702.877894c0 35.396269-28.623698 64.083858-63.892182 64.083858L430.920821 766.961752l-74.753853 0.255569-137.176515 124.525863c-28.815374 18.209272-26.706932-27.665315-26.706932-27.665315l0-48.110813c0.702814-20.764959-0.511137-48.813627-0.511137-48.813627s-18.720409-0.319461-28.559805-0.127784L128.646908 767.025644c-35.268484 0-63.892182-28.68759-63.892182-64.083858L64.754726 383.353092C64.754726 347.956823 93.378424 319.269233 128.646908 319.269233l511.137456 0c35.268484 0 63.892182 28.68759 63.892182 64.083858L703.676546 702.877894zM927.299183 0l-575.029637 0C299.366818 0 256.431272 43.063331 256.431272 96.157734l0 95.518812 63.892182 0 0-63.892182c0-35.396269 28.623698-63.700505 63.892182-63.700505l511.137456 0c35.268484 0 63.892182 28.68759 63.892182 64.083858l0 318.502527c0 35.396269-28.623698 64.083858-63.892182 64.083858L831.46091 510.945779l0 64.083858 95.838273-0.127784c52.902727 0 95.838273-43.063331 95.838273-96.157734L1023.137456 96.157734C1023.137456 43.063331 980.201909 0 927.299183 0zM543.946091 448.459225l-319.46091 0C206.850939 448.459225 192.53909 462.771074 192.53909 480.5331c0 17.698134 14.311849 32.073875 31.946091 32.073875l319.46091 0c17.634242 0 31.946091-14.375741 31.946091-32.073875C575.892182 462.771074 561.580333 448.459225 543.946091 448.459225zM480.053909 576.626942l-255.568728 0C206.850939 576.626942 192.53909 591.002683 192.53909 608.700817c0 17.698134 14.311849 32.073875 31.946091 32.073875l255.568728 0C497.688151 640.774693 512 626.398952 512 608.700817 512 591.002683 497.688151 576.626942 480.053909 576.626942z" p-id="5006"></path></svg>