<?xml version="1.0" standalone="no"?><!DOCTYPE svg PUBLIC "-//W3C//DTD SVG 1.1//EN" "http://www.w3.org/Graphics/SVG/1.1/DTD/svg11.dtd"><svg t="1516107781246" class="icon" style="" viewBox="0 0 1024 1024" version="1.1" xmlns="http://www.w3.org/2000/svg" p-id="3494" xmlns:xlink="http://www.w3.org/1999/xlink" width="16" height="16"><defs><style type="text/css"></style></defs><path d="M218.453333 213.333333 253.013333 170.666667 765.013333 170.666667 805.12 213.333333M512 746.666667 277.333333 512 426.666667 512 426.666667 426.666667 597.333333 426.666667 597.333333 512 746.666667 512 512 746.666667M876.373333 223.146667 817.066667 151.466667C805.546667 136.96 788.053333 128 768 128L256 128C235.946667 128 218.453333 136.96 206.506667 151.466667L147.626667 223.146667C135.253333 237.653333 128 256 128 277.333333L128 810.666667C128 857.6 166.4 896 213.333333 896L810.666667 896C857.6 896 896 857.6 896 810.666667L896 277.333333C896 256 888.746667 237.653333 876.373333 223.146667Z" p-id="3495"></path></svg>