<?xml version="1.0" standalone="no"?><!DOCTYPE svg PUBLIC "-//W3C//DTD SVG 1.1//EN" "http://www.w3.org/Graphics/SVG/1.1/DTD/svg11.dtd"><svg t="1516413531936" class="icon" style="" viewBox="0 0 1024 1024" version="1.1" xmlns="http://www.w3.org/2000/svg" p-id="2143" xmlns:xlink="http://www.w3.org/1999/xlink" width="16" height="16"><defs><style type="text/css"></style></defs><path d="M69.96 375.037q0-24.441 17.391-41.362t41.832-16.92h59.222v264.149h-59.222q-24.441 0-41.832-16.92t-17.391-41.362v-147.585zM727.981 132.509q40.42-38.541 73.322-42.302t58.281 17.391 43.242 62.042 29.141 91.183 16.92 105.283 5.64 104.813-7.051 99.643-20.68 93.533-31.96 76.612-40.891 48.882-48.412 11.28-54.052-36.661q-27.26-31.961-73.792-53.112t-101.523-35.722-111.394-23.501-103.403-15.981-78.493-13.63-35.252-15.981v-294.23q3.759-13.16 29.61-21.62t65.802-15.981 90.244-16.45 102.463-24.441 101.993-39.481 90.244-61.573zM389.571 708.748q4.7 11.28 11.28 24.441 5.64 12.22 15.041 28.201t22.561 34.781q15.981 22.561 32.431 47.471t24.912 45.121 5.171 33.372-26.791 13.16h-53.582q-18.8 0-34.781-7.051t-30.551-21.62-30.081-37.131-33.372-53.582q-21.62-35.722-30.081-62.512t-11.28-44.651q-3.759-20.68 0-35.722 7.521 0.94 17.861 3.759 8.46 1.88 20.681 4.7t28.201 5.64q15.981 3.759 28.671 7.051t23.030 7.051q11.28 3.759 20.68 7.521z" p-id="2144"></path></svg>