<?xml version="1.0" standalone="no"?><!DOCTYPE svg PUBLIC "-//W3C//DTD SVG 1.1//EN" "http://www.w3.org/Graphics/SVG/1.1/DTD/svg11.dtd"><svg t="1515830938793" class="icon" style="" viewBox="0 0 1024 1024" version="1.1" xmlns="http://www.w3.org/2000/svg" p-id="2524" xmlns:xlink="http://www.w3.org/1999/xlink" width="16" height="16"><defs><style type="text/css"></style></defs><path d="M803.704 382.838667l-1.506667 0 0-71.406667c0.413333-6.689333 0.686667-13.242667 0.686667-19.8 0-77.96-30.446667-151.14-85.606667-206.3-55.16-55.022667-128.613333-85.333333-206.713333-85.333333S359.012 30.309333 303.852 85.469333s-85.606667 128.34-85.606667 206.302667l0 91.066667 2.046667 0c-79.046667 0-143.36 64.169333-143.36 142.946667l0 355.265333c0 78.913333 64.313333 142.946667 143.36 142.946667l583.412 0c79.053333 0 143.36-64.173333 143.36-142.946667L947.064 525.785333C947.064 446.872 882.757333 382.838667 803.704 382.838667zM284.058667 291.632c0-124.653333 101.58-225.96 226.506667-225.96s226.513333 101.442667 226.513333 225.96c0 5.326667-0.14 10.786667-0.546667 16.249333l-0.14 1.090667 0 73.593333L284.058667 382.565333 284.058667 291.632zM754.012 612.758667 478.205333 880.224c-12.693333 12.293333-32.9 12.02-45.326667-0.68l-133.666667-137.893333c-12.286667-12.706667-12.013333-32.906667 0.68-45.333333 12.7-12.293333 32.906667-12.013333 45.193333 0.68l111.413333 114.826667 252.725333-245.08c12.693333-12.286667 32.906667-12.013333 45.193333 0.68C766.978667 580.265333 766.572 600.465333 754.012 612.758667z" p-id="2525"></path></svg>