<?xml version="1.0" standalone="no"?><!DOCTYPE svg PUBLIC "-//W3C//DTD SVG 1.1//EN" "http://www.w3.org/Graphics/SVG/1.1/DTD/svg11.dtd"><svg class="icon" width="64px" height="64.00px" viewBox="0 0 1024 1024" version="1.1" xmlns="http://www.w3.org/2000/svg"><path fill="" d="M913.514141 659.763368c-18.712177-108.692514-97.227392-179.893136-97.227392-179.893136 11.236925-98.683557-29.90203-116.190279-29.90203-116.190279-8.667404-305.33615-271.043113-299.982212-276.547477-299.832809-5.525853-0.170892-267.946588-5.502317-276.55771 299.832809 0 0-41.150212 17.507746-29.924543 116.190279 0 0-78.527494 71.200622-97.215112 179.893136 0 0-9.987468 183.677323 89.728604 22.484084 0 0 22.449291 61.214177 63.564711 116.203582 0 0-73.528644 24.994254-67.302849 89.956801 0 0-2.487657 72.439846 157.054989 67.439972 0 0 112.177895-8.715499 145.81704-56.226582l29.65132 0c33.662681 47.512107 145.816017 56.226582 145.816017 56.226582 159.507854 4.999874 157.056012-67.439972 157.056012-67.439972 6.189979-64.962547-67.326385-89.956801-67.326385-89.956801 41.137932-54.988382 63.564711-116.203582 63.564711-116.203582C923.465794 843.440691 913.514141 659.763368 913.514141 659.763368L913.514141 659.763368zM913.514141 659.763368" /></svg>