<?xml version="1.0" standalone="no"?><!DOCTYPE svg PUBLIC "-//W3C//DTD SVG 1.1//EN" "http://www.w3.org/Graphics/SVG/1.1/DTD/svg11.dtd"><svg t="1516413617716" class="icon" style="" viewBox="0 0 1024 1024" version="1.1" xmlns="http://www.w3.org/2000/svg" p-id="3975" xmlns:xlink="http://www.w3.org/1999/xlink" width="16" height="16"><defs><style type="text/css"></style></defs><path d="M659.109859 684.349296l33.171831-19.470423c27.402817-15.864789 62.738028-6.490141 78.602817 20.912676l98.794366 170.907042c15.864789 27.402817 6.490141 62.738028-20.912676 78.602817l-28.84507 16.585915L659.109859 684.349296zM268.259155 33.892958l44.709859-25.960563c27.402817-15.864789 62.738028-6.490141 78.602817 20.912676l98.794366 170.907042c15.864789 27.402817 6.490141 62.738028-20.912676 78.602817L429.070423 301.430986 268.259155 33.892958zM220.664789 61.295775l-50.478873 29.566197c-108.169014 403.830986 131.24507 819.2 535.797183 928.090141l67.064789-38.940845L611.515493 711.752113l-12.259155 7.211268c-27.402817 15.864789-62.738028 6.490141-78.602817-20.912676L354.794366 411.042254c-15.864789-27.402817-6.490141-62.738028 20.912676-78.602817l5.769014-2.884507L220.664789 61.295775z" p-id="3976"></path></svg>