<?xml version="1.0" standalone="no"?><!DOCTYPE svg PUBLIC "-//W3C//DTD SVG 1.1//EN" "http://www.w3.org/Graphics/SVG/1.1/DTD/svg11.dtd"><svg class="icon" width="64px" height="64.00px" viewBox="0 0 1024 1024" version="1.1" xmlns="http://www.w3.org/2000/svg"><path fill="" d="M701.194916 359.293978c4.865186 0 9.730372 0.12163 14.595558 0.364889-25.542226-138.779427-168.82195-245.083739-341.900938-245.083739C182.80936 114.575128 27.974819 244.110702 27.974819 403.810429c0 93.654828 53.273785 176.971137 135.738686 229.880033 1.094667 0.729778 3.162371 1.946074 3.162371 1.946074l-33.448153 104.723127 125.035277-63.733935s3.892149 1.094667 5.838223 1.702815c34.42119 9.608742 71.153344 14.717187 109.466683 14.717187 7.784297 0 15.568595-0.243259 23.231263-0.729778-7.05452-22.014966-10.946668-45.124599-10.946669-69.08564 0.12163-145.712317 141.21202-263.936334 315.142416-263.936334z m-207.013659-102.168904c26.880152 0 48.530229 21.041929 48.530229 47.070674 0 25.907115-21.650077 47.070673-48.530229 47.070673-26.880152 0-48.530229-21.041929-48.53023-47.070673 0-26.028745 21.771707-47.070673 48.53023-47.070674zM253.476185 351.266421c-26.880152 0-48.530229-21.041929-48.530229-47.070673 0-26.028745 21.771707-47.070673 48.530229-47.070674 26.880152 0 48.651859 21.041929 48.651859 47.070674 0 26.028745-21.771707 47.070673-48.651859 47.070673zM411.594726 625.054757c0 135.008908 130.8735 244.475591 292.276042 244.475591 32.353486 0 63.369046-4.378667 92.438532-12.527854 1.702815-0.486519 4.986816-1.459556 4.986816-1.459555l105.574534 53.881933-28.218078-88.424753s1.824445-1.094667 2.675852-1.702815c69.693788-44.638081 114.696757-114.940017 114.696757-194.120917 0-135.008908-130.8735-244.475591-292.154413-244.475591-161.402542 0-292.276042 109.466683-292.276042 244.353961z m352.847607-84.167716c0-21.893337 18.366077-39.651265 40.989191-39.651265 22.744744 0 41.110821 17.757928 41.110821 39.651265 0 22.014966-18.366077 39.772895-41.110821 39.772895-22.623114 0-40.989191-17.757928-40.989191-39.772895z m-203.36477 0c0-21.893337 18.366077-39.651265 40.989191-39.651265s41.110821 17.757928 41.110821 39.651265c0 22.014966-18.366077 39.772895-41.110821 39.772895-22.623114 0-40.989191-17.757928-40.989191-39.772895z" /></svg>