<?xml version="1.0" standalone="no"?><!DOCTYPE svg PUBLIC "-//W3C//DTD SVG 1.1//EN" "http://www.w3.org/Graphics/SVG/1.1/DTD/svg11.dtd"><svg class="icon" width="64px" height="64.00px" viewBox="0 0 1024 1024" version="1.1" xmlns="http://www.w3.org/2000/svg"><path fill="" d="M738.240257 506.716735c-35.380661-6.858975-18.219981-25.899915-18.219981-25.899915s34.665632-57.122818-6.832493-98.620943c-51.402591-51.402591-176.347169 6.541185-176.347169 6.541185-47.695037 14.8567-35.06287-6.753045-28.309825-43.457832 0-43.245972-14.830217-116.417203-141.91988-73.171231-126.95725 43.457832-236.01231 195.679417-236.01231 195.679417-75.793002 101.189748-65.782605 179.366178-65.782605 179.366178 18.961492 172.613133 202.353014 220.016862 345.014405 231.245455 150.102982 11.705278 352.667856-51.773347 414.080844-182.226291C885.377195 565.507953 773.779812 513.787571 738.240257 506.716735zM420.979543 829.75064C271.988828 836.742028 151.54628 762.008328 151.54628 662.592909c0-99.547831 120.442548-179.366178 269.433264-186.251636 149.123128-6.885458 269.804019 54.580495 269.804019 153.889984C690.75708 729.620193 570.102672 822.94463 420.979543 829.75064zM391.266144 541.885535c-149.864639 17.531435-132.545064 157.915328-132.545064 157.915328s-1.535987 44.464168 40.200481 67.080249c87.683658 47.483177 177.936121 18.723149 223.565521-40.173999C568.142964 667.809967 541.342644 524.486513 391.266144 541.885535zM353.475573 738.889079c-27.992035 3.283834-50.528668-12.817545-50.528668-36.254584 0-23.304627 20.047275-47.72152 48.012827-50.634598 32.123309-3.045491 53.044508 15.465798 53.044508 38.849872C404.030724 714.180878 381.335195 735.711175 353.475573 738.889079zM441.794812 663.678692c-9.480746 7.097318-21.133059 6.064499-26.138257-2.40991-5.243541-8.289032-3.283834-21.583262 6.329325-28.57465 11.09618-8.236067 22.642563-5.852639 27.647762 2.436393C454.665322 643.604934 451.037215 656.316549 441.794812 663.678692zM691.39266 111.04125c-20.497478 0-37.075542 16.631029-37.075542 37.075542 0 20.470996 16.578064 37.075542 37.075542 37.075542 107.015905 0 194.0375 87.048077 194.0375 194.063982 0 11.917139-1.085784 23.86076-3.257351 35.486591l0.450203 0.079448c-0.132413 1.403574-0.42372 2.754183-0.42372 4.210722 0 20.470996 16.578064 37.075542 37.075542 37.075542 17.293092 0 31.673106-11.864174 35.777898-27.859622l0.026483 0c0-0.079448 0-0.185378 0.026483-0.264825 0.715028-2.754183 1.165231-5.614296 1.191714-8.606822 2.012672-13.241265 3.257351-26.694391 3.257351-40.147516C959.581245 231.377867 839.297592 111.04125 691.39266 111.04125zM691.39266 230.742287c-17.081232 0-30.905113 13.823881-30.905113 30.905113s13.823881 30.905113 30.905113 30.905113c47.82745 0 86.730287 38.902837 86.730287 86.730287 0 3.787002-0.238343 7.494556-0.688546 11.149145l0.715028 0.10593c-0.132413 1.218196-0.715028 2.30398-0.715028 3.601624 0 17.081232 13.823881 30.87863 30.905113 30.87863 15.624693 0 27.992035-11.758243 30.084154-26.800321l0.31779 0.026483c0.079448-0.767993 0.026483-1.588952 0.132413-2.356945 0.026483-0.609098 0.370755-1.138749 0.370755-1.747847 0-0.344273-0.185378-0.609098-0.185378-0.926889 0.450203-4.60796 0.900406-9.215921 0.900406-13.903328C839.933173 297.372333 773.303127 230.742287 691.39266 230.742287z" /></svg>